{"title":"The Great Escape 1963 720p BRRip x264 MP4 AAC-CC","uid":8703011,"size":3616599064,"categoryP":"video","categoryS":"hd___movies","magnet":"?xt=urn:btih:fbd9706cd2ac945bd68a544ee210bdb5cae06cb3&amp;dn=The+Great+Escape+1963+720p+BRRip+x264+MP4+AAC-CC&amp;tr=udp%3A%2F%2Ftracker.openbittorrent.com%3A80&amp;tr=udp%3A%2F%2Fopen.demonii.com%3A1337&amp;tr=udp%3A%2F%2Ftracker.coppersurfer.tk%3A6969&amp;tr=udp%3A%2F%2Fexodus.desync.com%3A6969","seeders":1,"leechers":4,"uploader":"Caveman44","files":39,"time":1374090721,"description":" &lt;a href=&quot;http://www.imdb.com/title/tt0057115/&quot; rel=&quot;nofollow&quot; target=&quot;_NEW&quot;&gt;http://www.imdb.com/title/tt0057115/&lt;/a&gt;\n\nSource: The.Great.Escape.1963.720p.BluRay.x264-HD4U Thanks!\n\nSubs ( Vobsub ) : Chinese, English, French, German, Italian, Portuguese, Spanish.\n\nSubs ( Subrip ) : Brazilian, Bulgarian, Danish, Dutch, English, Finnish, French, Greek, Indonesian, Portuguese, Swedish, Vietnamese.\n\nSample and Screens included.\n\nGeneral\nComplete name                            : The Great Escape 1963 720p BRRip x264 MP4 AAC-CC.mp4\nFormat                                   : MPEG-4\nFormat profile                           : Base Media\nCodec ID                                 : isom\nFile size                                : 3.21 GiB\nDuration                                 : 2h 52mn\nOverall bit rate mode                    : Variable\nOverall bit rate                         : 2 667 Kbps\nEncoded date                             : UTC 2013-06-10 06:10:49\nTagged date                              : UTC 2013-06-10 06:10:49\nWriting application                      : Yamb 2.1.0.0 \n\nVideo\nID                                       : 1\nFormat                                   : AVC\nFormat/Info                              : Advanced Video Codec\nFormat profile                           : &lt;a class=&quot;__cf_email__&quot; href=&quot;/cdn-cgi/l/email-protection&quot; data-cfemail=&quot;c78faea0af878bf3e9f6&quot;&gt;[email&amp;#160;protected]&lt;/a&gt;&lt;script cf-hash='f9e31' type=&quot;text/javascript&quot;&gt;\n/* &lt;![CDATA[ */!function(){try{var t=&quot;currentScript&quot;in document?document.currentScript:function(){for(var t=document.getElementsByTagName(&quot;script&quot;),e=t.length;e--;)if(t[e].getAttribute(&quot;cf-hash&quot;))return t[e]}();if(t&amp;&amp;t.previousSibling){var e,r,n,i,c=t.previousSibling,a=c.getAttribute(&quot;data-cfemail&quot;);if(a){for(e=&quot;&quot;,r=parseInt(a.substr(0,2),16),n=2;a.length-n;n+=2)i=parseInt(a.substr(n,2),16)^r,e+=String.fromCharCode(i);e=document.createTextNode(e),c.parentNode.replaceChild(e,c)}}}catch(u){}}();/* ]]&gt; */&lt;/script&gt;\nFormat settings, CABAC                   : Yes\nFormat settings, ReFrames                : 5 frames\nCodec ID                                 : avc1\nCodec ID/Info                            : Advanced Video Coding\nDuration                                 : 2h 52mn\nBit rate                                 : 2 283 Kbps\nMaximum bit rate                         : 23.9 Mbps\nWidth                                    : 1 280 pixels\nHeight                                   : 544 pixels\nDisplay aspect ratio                     : 2.35:1\nFrame rate mode                          : Variable\nFrame rate                               : 23.976 fps\nMinimum frame rate                       : 19.048 fps\nMaximum frame rate                       : 25.000 fps\nColor space                              : YUV\nChroma subsampling                       : 4:2:0\nBit depth                                : 8 bits\nScan type                                : Progressive\nBits/(Pixel*Frame)                       : 0.137\nStream size                              : 2.74 GiB (85%)\nWriting library                          : x264 core 112\nEncoding settings                        : cabac=1 / ref=5 / deblock=1:0:0 / analyse=0x3:0x113 / me=hex / subme=7 / psy=1 / psy_rd=1.00:0.00 / mixed_ref=1 / me_range=16 / chroma_me=1 / trellis=1 / 8x8dct=1 / cqm=0 / deadzone=21,11 / fast_pskip=1 / chroma_qp_offset=-2 / threads=3 / sliced_threads=0 / nr=0 / decimate=1 / interlaced=0 / constrained_intra=0 / bframes=5 / b_pyramid=2 / b_adapt=2 / b_bias=0 / direct=1 / weightb=1 / open_gop=0 / weightp=2 / keyint=240 / keyint_min=23 / scenecut=40 / intra_refresh=0 / rc_lookahead=50 / rc=abr / mbtree=1 / bitrate=2283 / ratetol=1.0 / qcomp=0.60 / qpmin=3 / qpmax=51 / qpstep=4 / ip_ratio=1.40 / aq=1:1.00\nEncoded date                             : UTC 2013-06-10 20:40:20\nTagged date                              : UTC 2013-06-10 06:16:58\nColor primaries                          : BT.709\nTransfer characteristics                 : BT.709\nMatrix coefficients                      : BT.709\n\nAudio\nID                                       : 2\nFormat                                   : AAC\nFormat/Info                              : Advanced Audio Codec\nFormat profile                           : LC\nCodec ID                                 : 40\nDuration                                 : 2h 52mn\nBit rate mode                            : Variable\nBit rate                                 : 384 Kbps\nMaximum bit rate                         : 672 Kbps\nChannel(s)                               : 6 channels\nChannel positions                        : Front: L C R, Side: L R, LFE\nSampling rate                            : 48.0 KHz\nCompression mode                         : Lossy\nDelay relative to video                  : 83ms\nStream size                              : 473 MiB (14%)\nLanguage                                 : English\nEncoded date                             : UTC 2013-06-10 06:15:43\nTagged date                              : UTC 2013-06-10 06:16:58\n\nEnjoy...\n\nRequested by mrmuvis \n\nComing soon: The Tin Drum, Strangers on a Train, Tokyo Story, Elegy and more.","torrent":{"xt":"urn:btih:fbd9706cd2ac945bd68a544ee210bdb5cae06cb3","amp;dn":"The+Great+Escape+1963+720p+BRRip+x264+MP4+AAC-CC","amp;tr":["udp%3A%2F%2Ftracker.openbittorrent.com%3A80","udp%3A%2F%2Fopen.demonii.com%3A1337","udp%3A%2F%2Ftracker.coppersurfer.tk%3A6969","udp%3A%2F%2Fexodus.desync.com%3A6969"],"infoHash":"fbd9706cd2ac945bd68a544ee210bdb5cae06cb3","infoHashBuffer":{"type":"Buffer","data":[251,217,112,108,210,172,148,91,214,138,84,78,226,16,189,181,202,224,108,179]},"announce":[],"urlList":[]}}